<svg width="293" height="334" viewBox="0 0 293 334" fill="none" xmlns="http://www.w3.org/2000/svg">
<line x1="10" y1="53.0963" x2="10" y2="323.124" stroke="#DE2427" stroke-width="20" stroke-linecap="round"/>
<line x1="241.044" y1="116.066" x2="241.956" y2="323.102" stroke="#DE2427" stroke-width="20" stroke-linecap="round"/>
<line x1="10" y1="323.11" x2="242" y2="323.11" stroke="#DE2427" stroke-width="20" stroke-linecap="round"/>
<line x1="10.9883" y1="52.8712" x2="180" y2="52.8712" stroke="#DE2427" stroke-width="20" stroke-linecap="round"/>
<path d="M181.177 114.358C179.597 114.318 178.32 113.057 178.257 111.478L176.087 56.621C175.98 53.903 179.255 52.4569 181.192 54.3669L238.243 110.648C240.179 112.558 238.777 115.853 236.058 115.783L181.177 114.358Z" stroke="#DE2427" stroke-width="20"/>
<line x1="61.4937" y1="157.61" x2="198.507" y2="157.61" stroke="#DE2427" stroke-width="15" stroke-linecap="round"/>
<line x1="61.4937" y1="277.61" x2="198.507" y2="277.61" stroke="#DE2427" stroke-width="15" stroke-linecap="round"/>
<line x1="61.4937" y1="237.61" x2="198.507" y2="237.61" stroke="#DE2427" stroke-width="15" stroke-linecap="round"/>
<line x1="61.4937" y1="197.61" x2="198.507" y2="197.61" stroke="#DE2427" stroke-width="15" stroke-linecap="round"/>
</svg>
